HIERARCHY
ROOT hip
{
	OFFSET 0.000000 0.000000 0.000000 
	CHANNELS 6 Xposition Yposition Zposition Xrotation Zrotation Yrotation
	JOINT abdomen
	{
		OFFSET 0.000000 3.402643 0.000000 
		CHANNELS 3 Xrotation Zrotation Yrotation
		JOINT chest
		{
			OFFSET 0.000000 8.438565 -0.680529 
			CHANNELS 3 Xrotation Zrotation Yrotation
			JOINT neck
			{
				OFFSET 0.000000 10.207942 -0.272212 
				CHANNELS 3 Xrotation Zrotation Yrotation
				JOINT head
				{
					OFFSET 0.000000 3.130431 0.000000 
					CHANNELS 3 Xrotation Zrotation Yrotation
					End Site
					{
						OFFSET 0.000000 3.130435 0.000000 
					}
				}
			}
			JOINT lCollar
			{
				OFFSET 3.470700 6.669187 -0.816635 
				CHANNELS 3 Yrotation Zrotation Xrotation
				JOINT lShldr
				{
					OFFSET 3.198488 0.000000 0.000000 
					CHANNELS 3 Zrotation Yrotation Xrotation
					JOINT lForeArm
					{
						OFFSET 10.139888 0.000000 0.000000 
						CHANNELS 3 Yrotation Zrotation Xrotation
						JOINT lHand
						{
							OFFSET 8.370511 0.000000 0.000000 
							CHANNELS 3 Zrotation Yrotation Xrotation
							End Site
							{
								OFFSET 4.083176 0.000000 0.000000 
							}
						}
					}
				}
			}
			JOINT rCollar
			{
				OFFSET -3.470700 6.669187 -0.816635 
				CHANNELS 3 Yrotation Zrotation Xrotation
				JOINT rShldr
				{
					OFFSET -3.198488 0.000000 0.000000 
					CHANNELS 3 Zrotation Yrotation Xrotation
					JOINT rForeArm
					{
						OFFSET -10.139888 0.000000 0.000000 
						CHANNELS 3 Yrotation Zrotation Xrotation
						JOINT rHand
						{
							OFFSET -8.370511 0.000000 0.000000 
							CHANNELS 3 Zrotation Yrotation Xrotation
							End Site
							{
								OFFSET -4.083176 0.000000 0.000000 
							}
						}
					}
				}
			}
		}
	}
	JOINT lThigh
	{
		OFFSET 5.308129 -1.633274 1.361059 
		CHANNELS 3 Xrotation Zrotation Yrotation
		JOINT lShin
		{
			OFFSET -2.041588 -20.007561 0.000000 
			CHANNELS 3 Xrotation Zrotation Yrotation
			JOINT lFoot
			{
				OFFSET 0.000000 -19.190928 -1.224953 
				CHANNELS 3 Xrotation Yrotation Zrotation
				End Site
				{
					OFFSET 0.000000 -2.449906 4.627600 
				}
			}
		}
	}
	JOINT rThigh
	{
		OFFSET -5.308129 -1.633274 1.361059 
		CHANNELS 3 Xrotation Zrotation Yrotation
		JOINT rShin
		{
			OFFSET 2.041588 -20.007561 0.000000 
			CHANNELS 3 Xrotation Zrotation Yrotation
			JOINT rFoot
			{
				OFFSET 0.000000 -19.190928 -1.224953 
				CHANNELS 3 Xrotation Yrotation Zrotation
				End Site
				{
					OFFSET 0.000000 -2.449906 4.627600 
				}
			}
		}
	}
}
MOTION
Frames: 10
Frame Time: 0.033333
2.867815 20.423988 1.017630 -3.858465 -6.692285 82.048676 0.000000 0.000000 0.000000 -1.055658 8.983241 -3.895791 -12.862911 -5.041768 1.480000 -0.870633 -3.531958 -1.050095 2.000000 -2.000000 0.000000 -72.641998 12.222000 35.474701 -41.543026 0.087710 15.282794 -10.813900 -6.753600 -0.144276 -2.000000 2.000000 0.000000 70.384300 23.950001 25.877001 48.849976 -0.481973 19.965624 -0.637925 3.686690 -1.289790 5.419755 15.516779 -3.251115 -3.188390 -1.844271 5.238883 40.221207 1.213257 -28.890871 2.722071 -6.275709 -22.526773 -3.643184 2.066574 6.766132 35.461834 5.057556 11.551908 
4.137158 20.163477 1.131841 -3.508896 -7.841101 81.672134 0.000000 0.000000 0.000000 1.292275 8.416087 -2.007684 -15.498428 -4.583092 0.428347 -1.820770 -4.202013 -1.254277 2.000000 -2.000000 0.000000 -74.029198 7.494940 37.007198 -35.410187 -0.071633 14.480324 -21.780600 -9.417880 1.406270 -2.000000 2.000000 0.000000 71.452499 27.402800 24.102301 48.060944 -0.665766 22.860140 -1.126160 3.556270 -1.323360 2.754046 14.997087 -3.135591 -3.195117 -1.842318 5.121991 -141.278778 178.865189 152.326752 0.261076 -6.583298 -22.172613 -3.637957 2.062768 6.844953 31.712969 5.131647 10.186855 
5.401322 19.450129 1.261832 -3.051940 -8.601250 81.959999 0.000000 0.000000 0.000000 3.697890 7.971860 -1.282870 -17.256800 -4.404350 -0.129514 -3.631970 -4.495560 -1.321830 2.000000 -2.000000 0.000000 -74.953697 3.236810 40.554199 -29.245701 -0.354114 13.054900 -1.494100 -4.277400 -1.039260 -2.000000 2.000000 0.000000 72.814499 30.505199 22.584900 46.395599 -0.627438 22.653400 -4.076180 2.721230 -1.482580 0.000328 14.517246 -3.980862 -3.198997 -1.824658 5.248349 36.240135 1.130424 -27.096506 -1.768004 -7.189526 -21.638199 -3.628683 2.063260 6.659733 27.725552 4.962736 10.253015 
6.466908 18.104431 1.440793 -3.271696 -10.604677 82.734550 0.000000 0.000000 0.000000 3.538990 9.135941 -1.402997 -17.485743 -5.105282 -0.155121 -5.237152 -4.294007 -1.274068 2.000000 -2.000000 0.000000 -75.033096 2.878680 45.990898 -24.085648 -0.962881 11.718099 -3.757100 -4.886280 -0.859646 -2.000000 2.000000 0.000000 74.364799 31.319099 21.851299 44.543610 -0.549866 21.547077 -7.147850 1.838750 -1.605220 -4.059061 14.777203 -4.421295 -3.223121 -1.852277 4.889482 392.110443 1.180126 -25.995018 -5.019147 -7.341750 -21.304516 -3.683467 2.083833 7.564569 25.905281 4.634643 12.655087 
7.733319 16.283539 1.692464 -2.881550 -12.562700 83.869301 0.000000 0.000000 0.000000 3.795730 8.896770 -1.481970 -18.125799 -5.300360 -1.226460 -6.119820 -3.372120 -0.989839 2.000000 -2.000000 0.000000 -74.060097 -0.960887 51.847698 -20.104200 -1.729000 10.662700 -5.759570 -5.428450 -0.672791 -2.000000 2.000000 0.000000 75.313301 32.509499 19.792999 43.569302 -0.468749 20.625401 -10.855900 0.772913 -1.683550 -8.543212 14.431808 -5.505294 -3.254516 -1.862958 3.640779 27.450886 1.243157 -25.369963 -8.778922 -8.299922 -21.826015 -3.774999 2.174100 10.282205 28.362951 4.132773 17.052757 
8.507745 13.925558 1.974063 -2.701750 -15.179200 85.237503 0.000000 0.000000 0.000000 3.639060 9.044530 -1.916860 -18.990400 -5.606640 -2.055990 -6.806170 -2.815120 -0.826452 2.000000 -2.000000 0.000000 -72.494003 -5.173340 56.597801 -17.099701 -2.930790 9.859800 -4.616560 -5.119480 -0.780874 -2.000000 2.000000 0.000000 76.765297 34.283298 16.313200 42.261101 -0.452935 20.569300 -14.819100 -0.365785 -1.703300 -14.015196 14.280954 -7.753024 -3.357506 -1.904848 1.478665 24.934837 1.481152 -27.030436 -12.768660 -8.644832 -22.307695 -3.815548 2.214315 11.597586 28.543547 3.814019 19.578379 
8.951479 11.091715 2.252492 -2.612423 -17.798550 86.594391 0.000000 0.000000 0.000000 4.308246 9.195190 -2.099872 -20.347313 -5.815567 -2.970214 -7.594568 -2.645746 -0.780641 2.000000 -2.000000 0.000000 -70.692200 -10.815800 61.441799 -14.906806 -3.812933 9.103312 -6.393480 -5.597370 -0.618254 -2.000000 2.000000 0.000000 79.841202 37.358799 11.687800 40.372932 -0.498482 21.585999 -18.888800 -1.536390 -1.631170 -17.534985 12.868550 -4.248499 -3.465408 -1.972320 -1.307349 22.233124 1.325033 -24.294094 -15.573284 -6.148713 -29.568483 -3.755886 2.154026 9.883557 26.050812 5.176609 8.089372 
9.416538 7.854579 2.528855 -3.219640 -19.892900 87.402802 0.000000 0.000000 0.000000 6.233650 9.786680 -0.995751 -21.277599 -5.720060 -4.370710 -11.055000 -2.520030 -0.740760 2.000000 -2.000000 0.000000 -69.389702 -19.345800 63.635101 -12.055100 -4.027240 9.469970 -8.468580 -6.151070 -0.400367 -2.000000 2.000000 0.000000 83.177200 44.132599 5.684820 37.739201 -0.437656 23.808800 -22.344200 -2.528500 -1.510210 -32.540852 12.418167 4.231050 29.158932 -1.934859 -7.123503 -6.658004 1.008766 -10.344548 -22.973417 -7.397587 -25.226284 15.801273 1.932817 3.681141 -2.142389 5.037327 0.042434 
9.939394 4.882221 2.813578 -3.982530 -23.123800 87.275902 0.000000 0.000000 0.000000 5.554410 9.467870 0.838707 -19.429001 -4.575680 -6.798380 -18.852100 -0.987917 -0.287592 2.000000 -2.000000 0.000000 -69.038101 -23.761600 63.796200 -7.308770 -2.524770 11.727800 -12.054200 -7.073630 0.013830 -2.000000 2.000000 0.000000 84.570602 43.439301 0.895927 32.686600 -0.767484 25.724800 -25.155800 -3.320820 -1.367290 -43.865891 15.067720 7.111967 48.216869 -0.804749 -9.983646 -20.132425 0.962784 -4.867545 -34.838200 -8.511733 -21.656597 36.413601 1.122900 -0.810687 -18.905558 4.508794 -1.152647 
11.035691 2.778013 3.076045 -3.970850 -25.483601 87.313599 0.000000 0.000000 0.000000 4.483620 8.558100 1.363190 -17.324900 -3.946470 -9.294960 -24.393600 2.236460 0.658185 2.000000 -2.000000 0.000000 -71.765503 -23.532400 63.370800 -3.193760 1.565400 14.630800 -13.946000 -7.546290 0.250621 -2.000000 2.000000 0.000000 86.326302 38.858601 2.512990 22.391500 -1.864620 24.862400 -27.866301 -4.077620 -1.194590 -51.358273 15.767977 5.174437 59.316292 0.034268 -9.760171 -25.827112 1.185157 -5.043941 -43.817329 -9.530892 -17.926365 50.683922 0.213993 -3.933789 -25.913877 4.060349 0.663115 
